# xmcd
#
# Track frame offsets: 
#        150
#        15070
#        34543
#        55920
#        79028
#        100338
#        125218
#        140433
#        161318
#        182883
#
# Disc length: 2677 seconds
#
# Revision: 0
# Processed by: cddbd v1.5.2PL0 Copyright (c) Steve Scherf et al.
# Submitted via: ExactAudioCopy v1.0b3
#
DISCID=760a730a
DTITLE=Various Artist - Chieu Len Ban Thuong
DYEAR=1992
DGENRE=
TTITLE0=Lucia Kim Chi - Alisan
TTITLE1=Giao Linh - Mua rung
TTITLE2=Hai Ly - Trang son cuoc
TTITLE3=Thien Trang - Do ai
TTITLE4=Phuong Mai - Duyen tinh
TTITLE5=Giao Linh, Phuong Vu - Chieu len ban Thuong
TTITLE6=The Phong - Duong len non
TTITLE7=Phuong Mai - Khuya nay anh di roi
TTITLE8=Giao Linh - Son nu ca
TTITLE9=Thien Trang - Em biet anh di chang tro ve
EXTD=
EXTT0=
EXTT1=
EXTT2=
EXTT3=
EXTT4=
EXTT5=
EXTT6=
EXTT7=
EXTT8=
EXTT9=
PLAYORDER=
